<svg height="512" viewBox="0 0 128 128" width="512" xmlns="http://www.w3.org/2000/svg" xmlns:xlink="http://www.w3.org/1999/xlink"><linearGradient id="a" gradientUnits="userSpaceOnUse" x1="77.54" x2="30.536" y1="95.953" y2="48.949"><stop offset="0" stop-color="#fd3a69"/><stop offset="1" stop-color="#fc9f2d"/></linearGradient><linearGradient id="b" x1="39.813" x2="37.173" xlink:href="#a" y1="86.919" y2="84.279"/><linearGradient id="c" x1="96.863" x2="82.193" xlink:href="#a" y1="35.069" y2="20.399"/><path d="m60.281 110.856a5.68 5.68 0 0 1 -4.7-8.862l10.564-15.631-11.3-7.657-19.5 28.524a5.679 5.679 0 1 1 -9.376-6.412l4.544-6.646a1.75 1.75 0 1 1 2.887 1.976l-4.544 6.646a2.182 2.182 0 0 0 .569 3.03 2.23 2.23 0 0 0 3.029-.569l20.489-29.963a1.751 1.751 0 0 1 2.426-.461l14.187 9.616a1.751 1.751 0 0 1 .468 2.429l-11.545 17.079a2.178 2.178 0 0 0 .585 3.026 2.231 2.231 0 0 0 3.026-.584l13.743-20.332a2.181 2.181 0 0 0 -.582-3.025l-17.409-11.8a1.747 1.747 0 0 1 -.463-2.437l13.133-19.203a1.749 1.749 0 0 1 3.162.655l2.818 14.575a2.18 2.18 0 0 0 2.553 1.726l18.71-3.617a2.18 2.18 0 0 0 -.827-4.281l-14.85 2.871a1.749 1.749 0 0 1 -2.05-1.386l-3.859-19.965a.758.758 0 0 0 -.042-.137c-.015-.037-.027-.073-.039-.11a2.181 2.181 0 0 0 -.772-1.1c-.045-.024-.089-.051-.121-.072a1.552 1.552 0 0 0 -.195-.117l-17.8-8.926a2.178 2.178 0 0 0 -2.5.389l-16.042 15.671a2.179 2.179 0 0 0 -.035 3.082 2.233 2.233 0 0 0 3.083.036l14.032-13.712a1.748 1.748 0 0 1 2.007-.313l11.283 5.655a1.75 1.75 0 0 1 .66 2.553l-22.754 33.279a1.75 1.75 0 1 1 -2.889-1.976l21.624-31.625-8.377-4.2-13.141 12.845a5.679 5.679 0 1 1 -7.938-8.124l16.036-15.676a5.677 5.677 0 0 1 6.516-1.015l17.809 8.928a4.56 4.56 0 0 1 .5.293c.056.031.112.065.151.092a5.615 5.615 0 0 1 2.175 2.915 4.027 4.027 0 0 1 .2.7l3.528 18.248 13.13-2.539a5.68 5.68 0 0 1 2.157 11.154l-18.703 3.616a5.729 5.729 0 0 1 -4.26-.871 5.642 5.642 0 0 1 -2.395-3.621l-2.023-10.466-9.774 14.294 15.954 10.815a5.685 5.685 0 0 1 1.518 7.883l-13.742 20.33a5.674 5.674 0 0 1 -4.709 2.5z" fill="url(#a)"/><path d="m38.137 87.868a1.75 1.75 0 0 1 -1.444-2.737l.709-1.038a1.751 1.751 0 0 1 2.891 1.975l-.709 1.037a1.748 1.748 0 0 1 -1.447.763z" fill="url(#b)"/><path d="m89.528 38.112a10.378 10.378 0 1 1 10.378-10.378 10.39 10.39 0 0 1 -10.378 10.378zm0-17.256a6.878 6.878 0 1 0 6.878 6.878 6.885 6.885 0 0 0 -6.878-6.878z" fill="url(#c)"/></svg>